<svg width="30" height="30" viewBox="0 0 30 30" fill="none" xmlns="http://www.w3.org/2000/svg">
<path d="M14.9451 7.04726C13.3806 7.04698 11.8512 7.51064 10.5502 8.37961C9.24929 9.24858 8.23523 10.4838 7.63632 11.9291C7.03741 13.3744 6.88054 14.9649 7.18555 16.4993C7.49056 18.0338 8.24375 19.4433 9.34988 20.5497C10.456 21.6561 11.8654 22.4096 13.3998 22.715C14.9342 23.0204 16.5246 22.8639 17.9701 22.2653C19.4155 21.6667 20.651 20.653 21.5203 19.3522C22.3896 18.0515 22.8536 16.5222 22.8537 14.9577C22.8516 12.8607 22.0177 10.8501 20.5351 9.36713C19.0525 7.88415 17.0421 7.04984 14.9451 7.04726ZM27.5183 13.5616H25.6589C25.2887 13.5616 24.9336 13.7086 24.6719 13.9704C24.4101 14.2322 24.263 14.5872 24.263 14.9574C24.263 15.3276 24.4101 15.6827 24.6719 15.9445C24.9336 16.2062 25.2887 16.3533 25.6589 16.3533H27.5183C27.8885 16.3533 28.2435 16.2063 28.5052 15.9445C28.7669 15.6828 28.914 15.3278 28.914 14.9577C28.914 14.5875 28.7669 14.2325 28.5052 13.9708C28.2435 13.7091 27.8885 13.562 27.5183 13.562V13.5616ZM14.9451 24.2586C14.5752 24.2591 14.2205 24.4063 13.959 24.6679C13.6974 24.9296 13.5503 25.2843 13.55 25.6542V27.5151C13.55 27.885 13.6969 28.2398 13.9585 28.5014C14.2201 28.763 14.5749 28.91 14.9449 28.91C15.3148 28.91 15.6696 28.763 15.9312 28.5014C16.1928 28.2398 16.3398 27.885 16.3398 27.5151V25.6542C16.3394 25.2844 16.1924 24.9297 15.931 24.6681C15.6695 24.4065 15.315 24.2592 14.9451 24.2586ZM5.6493 14.9577C5.64893 14.5878 5.5019 14.2332 5.24045 13.9716C4.979 13.7099 4.62447 13.5627 4.2546 13.562H2.39563C2.02548 13.562 1.6705 13.7091 1.40877 13.9708C1.14704 14.2325 1 14.5875 1 14.9577C1 15.3278 1.14704 15.6828 1.40877 15.9445C1.6705 16.2063 2.02548 16.3533 2.39563 16.3533H4.2546C4.62447 16.3527 4.979 16.2054 5.24045 15.9438C5.5019 15.6822 5.64893 15.3275 5.6493 14.9577ZM14.9451 5.65116C15.315 5.65055 15.6695 5.50328 15.931 5.24166C16.1924 4.98003 16.3394 4.6254 16.3398 4.25553V2.3947C16.3398 2.0248 16.1929 1.67005 15.9313 1.4085C15.6698 1.14694 15.315 1 14.9451 1C14.5752 1 14.2205 1.14694 13.9589 1.4085C13.6974 1.67005 13.5504 2.0248 13.5504 2.3947V4.25553C13.5508 4.6254 13.6978 4.98003 13.9593 5.24166C14.2207 5.50328 14.5752 5.65055 14.9451 5.65116ZM23.4989 8.37682L24.815 7.06028C25.0766 6.79871 25.2235 6.44395 25.2235 6.07404C25.2235 5.70412 25.0766 5.34936 24.815 5.08779C24.5534 4.82623 24.1987 4.67928 23.8287 4.67928C23.4588 4.67928 23.1041 4.82623 22.8425 5.08779L21.526 6.40387C21.3964 6.53339 21.2937 6.68714 21.2236 6.85636C21.1535 7.02558 21.1174 7.20695 21.1174 7.39011C21.1174 7.57328 21.1535 7.75465 21.2236 7.92387C21.2937 8.09309 21.3964 8.24684 21.526 8.37636C21.6555 8.50587 21.8092 8.60861 21.9785 8.6787C22.1477 8.7488 22.329 8.78487 22.5122 8.78487C22.6954 8.78487 22.8767 8.7488 23.046 8.6787C23.2152 8.60861 23.3689 8.50587 23.4985 8.37636L23.4989 8.37682ZM23.4985 21.539C23.3689 21.4095 23.2152 21.3067 23.046 21.2366C22.8767 21.1666 22.6954 21.1305 22.5122 21.1305C22.329 21.1305 22.1477 21.1666 21.9785 21.2366C21.8092 21.3067 21.6555 21.4095 21.526 21.539C21.3964 21.6685 21.2937 21.8223 21.2236 21.9915C21.1535 22.1607 21.1174 22.3421 21.1174 22.5252C21.1174 22.7084 21.1535 22.8898 21.2236 23.059C21.2937 23.2282 21.3964 23.382 21.526 23.5115L22.842 24.8276C22.9716 24.9571 23.1253 25.0598 23.2945 25.1299C23.4638 25.2 23.6451 25.2361 23.8283 25.2361C24.0114 25.2361 24.1928 25.2 24.362 25.1299C24.5313 25.0598 24.685 24.9571 24.8145 24.8276C24.944 24.698 25.0468 24.5443 25.1169 24.3751C25.187 24.2058 25.223 24.0245 25.223 23.8413C25.223 23.6581 25.187 23.4768 25.1169 23.3076C25.0468 23.1383 24.944 22.9846 24.8145 22.8551L23.4985 21.539ZM6.39085 21.5385L5.07523 22.8551C4.94572 22.9846 4.84298 23.1383 4.77289 23.3076C4.70279 23.4768 4.66672 23.6581 4.66672 23.8413C4.66672 24.0245 4.70279 24.2058 4.77289 24.3751C4.84298 24.5443 4.94572 24.698 5.07523 24.8276C5.3368 25.0891 5.69156 25.2361 6.06148 25.2361C6.24464 25.2361 6.42601 25.2 6.59523 25.1299C6.76445 25.0598 6.91821 24.9571 7.04772 24.8276L8.3638 23.511C8.49331 23.3815 8.59605 23.2277 8.66614 23.0585C8.73624 22.8893 8.77231 22.7079 8.77231 22.5248C8.77231 22.3416 8.73624 22.1602 8.66614 21.991C8.59605 21.8218 8.49331 21.668 8.3638 21.5385C8.23428 21.409 8.08053 21.3063 7.91131 21.2362C7.74209 21.1661 7.56072 21.13 7.37755 21.13C7.19439 21.13 7.01302 21.1661 6.8438 21.2362C6.67458 21.3063 6.52083 21.409 6.39131 21.5385H6.39085ZM6.39131 8.37636C6.52083 8.50587 6.67458 8.60861 6.8438 8.6787C7.01302 8.7488 7.19439 8.78487 7.37755 8.78487C7.56072 8.78487 7.74209 8.7488 7.91131 8.6787C8.08053 8.60861 8.23428 8.50587 8.3638 8.37636C8.49331 8.24684 8.59605 8.09309 8.66614 7.92387C8.73624 7.75465 8.77231 7.57328 8.77231 7.39011C8.77231 7.20695 8.73624 7.02558 8.66614 6.85636C8.59605 6.68714 8.49331 6.53339 8.3638 6.40387L7.04772 5.08733C6.91817 4.95781 6.76439 4.85508 6.59514 4.785C6.42589 4.71492 6.2445 4.67886 6.06131 4.67888C5.87813 4.6789 5.69674 4.715 5.52751 4.78513C5.35828 4.85525 5.20452 4.95802 5.075 5.08756C4.94549 5.21711 4.84275 5.37089 4.77267 5.54014C4.70259 5.70939 4.66653 5.89079 4.66655 6.07397C4.66657 6.25715 4.70268 6.43854 4.7728 6.60777C4.84292 6.777 4.94569 6.93077 5.07523 7.06028L6.39131 8.37636Z" fill="#1BD1EA"/>
</svg>
