<svg width="515" height="256" viewBox="0 0 515 256" fill="none" xmlns="http://www.w3.org/2000/svg">
<path d="M36.8502 5.42152C40.4078 5.43257 43.94 6.02057 47.3093 7.16262C41.1587 9.33793 35.834 13.3672 32.0691 18.6952C28.3041 24.0232 26.2842 30.3877 26.2877 36.9117V95.0537C34.3026 90.4241 43.621 88.5681 52.7981 89.7735C61.9752 90.9789 70.4983 95.1784 77.0458 101.721C81.0337 105.542 84.1863 110.148 86.3044 115.249C88.4226 120.35 89.4605 125.835 89.3525 131.357V173.394C89.3525 178.915 88.265 184.382 86.1521 189.483C84.0392 194.584 80.9424 199.219 77.0384 203.123C73.1343 207.027 68.4995 210.124 63.3985 212.237C58.2976 214.35 52.8305 215.437 47.3093 215.437C41.7881 215.437 36.321 214.35 31.2201 212.237C26.1191 210.124 21.4843 207.027 17.5802 203.123C13.6762 199.219 10.5793 194.584 8.4664 189.483C6.35353 184.382 5.26612 178.915 5.26612 173.394V36.9085C5.17701 32.7627 5.95143 28.6437 7.54018 24.8133C9.12893 20.9829 11.4972 17.525 14.4945 14.6594C17.3926 11.6753 20.8715 9.31689 24.7165 7.72966C28.5615 6.14243 32.6911 5.36012 36.8502 5.43094M47.3093 194.416C50.0769 194.441 52.8217 193.914 55.3835 192.866C57.9453 191.819 60.2726 190.271 62.2297 188.314C64.1867 186.357 65.7342 184.03 66.7817 181.468C67.8293 178.906 68.3559 176.162 68.3308 173.394V131.354C68.4013 128.583 67.8904 125.829 66.8311 123.268C65.7718 120.707 64.1876 118.397 62.1807 116.486C60.2468 114.515 57.9298 112.962 55.3727 111.922C52.8156 110.881 50.0725 110.375 47.3125 110.436C44.5394 110.394 41.7861 110.907 39.2147 111.946C36.6434 112.985 34.3062 114.529 32.3408 116.486C30.3707 118.42 28.8175 120.736 27.7769 123.294C26.7364 125.851 26.2306 128.594 26.2908 131.354V173.394C26.2429 176.168 26.7539 178.923 27.7934 181.495C28.8329 184.067 30.3795 186.404 32.3411 188.365C34.3028 190.327 36.6394 191.873 39.2115 192.913C41.7836 193.952 44.5387 194.463 47.3125 194.416M36.8532 0.86522C32.0949 0.794248 27.3722 1.69465 22.9738 3.51132C18.5753 5.32799 14.5937 8.02276 11.2723 11.4308C7.84807 14.7185 5.1413 18.6793 3.32242 23.064C1.50354 27.4487 0.611927 32.1624 0.703553 36.9085V173.394C0.653485 179.529 1.82485 185.612 4.14944 191.289C6.47402 196.967 9.90526 202.125 14.2433 206.463C18.5814 210.801 23.7395 214.232 29.4169 216.557C35.0944 218.881 41.1777 220.053 47.3125 220.003C53.4404 220.029 59.5128 218.842 65.1793 216.509C70.8458 214.176 75.994 210.744 80.3268 206.41C84.6597 202.077 88.0912 196.928 90.4235 191.261C92.7557 185.594 93.9424 179.522 93.9151 173.394V131.354C94.02 125.228 92.8603 119.146 90.5084 113.489C88.1565 107.831 84.663 102.72 80.2462 98.4733C75.969 94.0846 70.842 90.6138 65.1785 88.2728C59.515 85.9318 53.4338 84.7698 47.3061 84.8577C41.6854 84.8353 36.1081 85.8425 30.8502 87.8295V36.9085C30.8487 31.3204 32.5832 25.8698 35.8139 21.3102C39.0445 16.7506 43.6118 13.3071 48.8844 11.4559C49.7718 11.1286 50.5358 10.5338 51.0706 9.75368C51.6054 8.97354 51.8846 8.04653 51.8699 7.10079C51.8551 6.15506 51.5469 5.23729 50.988 4.47424C50.4291 3.71119 49.647 3.14053 48.7498 2.84117C44.9157 1.54496 40.8974 0.876691 36.8502 0.862114L36.8532 0.86522ZM47.3125 189.85C45.1382 189.897 42.9767 189.504 40.9585 188.694C38.9403 187.883 37.1072 186.672 35.5695 185.135C34.0318 183.597 32.8215 181.763 32.0115 179.745C31.2015 177.727 30.8087 175.565 30.8565 173.391V131.354C30.7978 129.195 31.1859 127.047 31.9963 125.045C32.8068 123.043 34.0222 121.23 35.5663 119.72C37.1078 118.189 38.9421 116.984 40.9597 116.177C42.9773 115.37 45.1368 114.977 47.3093 115.023C49.4684 114.962 51.6167 115.348 53.6197 116.156C55.6226 116.965 57.437 118.178 58.9489 119.72C60.5291 121.21 61.7752 123.017 62.6049 125.024C63.4346 127.03 63.829 129.19 63.7621 131.36V173.394C63.8125 175.578 63.4109 177.749 62.5826 179.77C61.7544 181.791 60.5173 183.619 58.9489 185.14C57.4367 186.682 55.6224 187.895 53.6195 188.704C51.6166 189.512 49.4683 189.898 47.3093 189.837L47.3125 189.85Z" fill="#1BD1EA"/>
<path d="M46.3587 256.002C43.7488 256.002 41.1974 255.228 39.0273 253.778C36.8573 252.328 35.1659 250.267 34.1671 247.855C33.1683 245.444 32.9071 242.791 33.4162 240.231C33.9254 237.671 35.1821 235.32 37.0276 233.474C38.8731 231.629 41.2245 230.372 43.7843 229.863C46.3441 229.354 48.9973 229.615 51.4086 230.614C53.8198 231.613 55.8808 233.304 57.3308 235.474C58.7808 237.644 59.5547 240.195 59.5547 242.805C59.5506 246.304 58.1589 249.658 55.6851 252.132C53.2113 254.606 49.8573 255.997 46.3587 256.002Z" fill="#1BD1EA"/>
<path d="M321.353 131.002C319.861 131.002 318.403 130.559 317.162 129.73C315.922 128.901 314.955 127.723 314.384 126.345C313.813 124.966 313.663 123.449 313.954 121.986C314.246 120.523 314.964 119.179 316.019 118.124C317.074 117.069 318.418 116.35 319.882 116.059C321.345 115.768 322.862 115.917 324.24 116.488C325.619 117.059 326.797 118.026 327.626 119.267C328.455 120.507 328.897 121.966 328.897 123.458C328.894 125.458 328.099 127.375 326.685 128.789C325.271 130.203 323.353 130.999 321.353 131.002Z" fill="#1BD1EA"/>
<path d="M152.375 128.75C152.364 127.685 152.566 126.629 152.969 125.642C153.372 124.656 153.967 123.761 154.721 123.007C155.474 122.254 156.37 121.659 157.356 121.256C158.342 120.853 159.398 120.651 160.463 120.662H186.182C201.213 120.662 214.005 120.661 214.005 144.602C214.005 152.85 212.549 157.381 207.533 161.101C212.543 164.499 214.005 169.675 214.005 177.438C214.005 201.379 201.226 201.551 186.182 201.551H160.46C159.395 201.561 158.339 201.359 157.353 200.956C156.367 200.553 155.471 199.958 154.717 199.205C153.964 198.452 153.369 197.556 152.966 196.57C152.563 195.584 152.361 194.527 152.372 193.462L152.375 128.75ZM186.019 134.249H166.936V155.111H186.019C191.841 155.111 199.447 153.818 199.447 144.599C199.447 135.223 191.844 134.249 186.019 134.249ZM199.447 178.403C199.447 169.506 191.844 167.405 186.019 167.405H166.936V189.241H186.019C191.844 189.244 199.447 187.96 199.447 178.406V178.403Z" fill="#3C3C3B"/>
<path d="M267.382 188.604C268.189 188.603 268.989 188.762 269.735 189.07C270.481 189.379 271.159 189.832 271.73 190.403C272.301 190.974 272.754 191.652 273.062 192.398C273.371 193.144 273.529 193.944 273.529 194.751C273.511 196.09 273.035 197.381 272.18 198.412C271.325 199.442 270.143 200.148 268.831 200.413C262.863 201.607 256.799 202.256 250.713 202.354C234.053 202.354 222.407 196.21 222.407 177.616V165.162C222.407 144.134 227.104 136.039 249.097 136.039C271.741 136.039 275.301 144.773 275.301 162.243V168.387C275.302 169.336 275.113 170.275 274.745 171.149C274.378 172.023 273.839 172.815 273.161 173.479C272.483 174.142 271.679 174.663 270.797 175.011C269.915 175.359 268.972 175.527 268.023 175.505H236.806V178.414C236.806 186.177 242.79 190.063 250.556 190.063C255.704 190.037 260.842 189.603 265.922 188.767C266.251 188.761 267.059 188.604 267.382 188.604ZM236.975 163.371H260.752V159.328C260.752 153.344 259.459 149.62 249.106 149.62C240.21 149.617 236.975 151.396 236.975 163.367V163.371Z" fill="#3C3C3B"/>
<path d="M286.148 122.118C286.148 120.187 286.915 118.336 288.28 116.971C289.645 115.606 291.497 114.839 293.427 114.839C295.358 114.839 297.21 115.606 298.575 116.971C299.94 118.336 300.707 120.187 300.707 122.118V194.261C300.707 196.191 299.94 198.043 298.575 199.408C297.21 200.773 295.358 201.54 293.427 201.54C291.497 201.54 289.645 200.773 288.28 199.408C286.915 198.043 286.148 196.191 286.148 194.261V122.118Z" fill="#3C3C3B"/>
<path d="M313.965 144.115C313.965 142.185 314.732 140.333 316.097 138.968C317.462 137.603 319.314 136.836 321.244 136.836C323.175 136.836 325.026 137.603 326.392 138.968C327.757 140.333 328.524 142.185 328.524 144.115V207.521C328.524 226.445 321.406 231.299 308.144 231.299C304.185 231.378 300.228 231.052 296.335 230.328C294.844 230.056 293.506 229.24 292.582 228.038C291.658 226.836 291.214 225.334 291.334 223.823C291.455 222.312 292.133 220.899 293.237 219.86C294.34 218.82 295.79 218.227 297.306 218.196C300.503 218.815 303.758 219.086 307.013 219.004C312.512 219.004 313.968 216.903 313.968 208.984L313.965 144.115Z" fill="#3C3C3B"/>
<path d="M384.649 150.592C386.753 159.163 389.659 170.486 391.93 178.898L398.722 141.692C399.21 140.278 400.127 139.051 401.345 138.182C402.563 137.313 404.021 136.844 405.517 136.842C406.466 136.841 407.405 137.029 408.28 137.397C409.154 137.764 409.946 138.303 410.61 138.981C411.273 139.659 411.794 140.463 412.142 141.345C412.489 142.228 412.657 143.171 412.635 144.119L402.752 193.13C402.278 195.519 400.984 197.668 399.094 199.204C397.203 200.74 394.835 201.567 392.399 201.541C389.971 201.586 387.598 200.812 385.661 199.345C383.725 197.878 382.339 195.803 381.724 193.453C378.812 182.129 376.87 176.308 373.961 164.502C371.049 176.311 369.108 182.129 366.195 193.453C365.581 195.803 364.194 197.878 362.258 199.345C360.322 200.812 357.949 201.586 355.52 201.541C353.085 201.566 350.717 200.739 348.826 199.203C346.936 197.667 345.642 195.519 345.167 193.13L335.303 144.119C335.281 143.171 335.449 142.228 335.797 141.345C336.145 140.463 336.666 139.659 337.329 138.981C337.992 138.303 338.784 137.764 339.659 137.397C340.533 137.029 341.473 136.841 342.421 136.842C343.917 136.845 345.374 137.314 346.591 138.183C347.809 139.052 348.725 140.279 349.213 141.692L356.009 178.898C358.273 170.483 361.185 159.169 363.286 150.592C363.862 148.195 365.229 146.061 367.165 144.534C369.102 143.008 371.496 142.178 373.961 142.178C376.427 142.178 378.821 143.008 380.758 144.534C382.694 146.061 384.061 148.195 384.637 150.592H384.649Z" fill="#3C3C3B"/>
<path d="M440.298 136.033C457.121 136.033 468.118 141.695 468.118 160.459V194.279C468.118 196.209 467.352 198.06 465.987 199.425C464.622 200.789 462.771 201.556 460.841 201.556C458.911 201.556 457.06 200.789 455.695 199.425C454.33 198.06 453.563 196.209 453.563 194.279C451.459 200.1 443.856 202.367 438.845 202.367C422.346 202.367 415.391 196.868 415.391 180.854C415.391 165.325 428.652 162.09 437.712 162.09C442.636 161.784 447.565 162.615 452.117 164.517H453.573V160.312C453.573 152.386 446.777 149.636 439.015 149.636C435.688 149.69 432.378 150.124 429.15 150.93C428.621 151.064 428.074 151.119 427.528 151.093C426.648 151.129 425.769 150.983 424.948 150.663C424.127 150.343 423.381 149.856 422.758 149.233C422.135 148.61 421.647 147.864 421.327 147.043C421.006 146.222 420.86 145.344 420.896 144.463C420.821 142.969 421.263 141.494 422.147 140.286C423.03 139.079 424.302 138.212 425.75 137.831C430.521 136.714 435.399 136.112 440.298 136.033ZM453.563 175.177H447.091C438.034 175.177 429.946 175.177 429.946 182.129C429.946 189.246 432.532 190.057 438.679 190.057C441.561 189.936 444.383 189.194 446.952 187.881C449.521 186.569 451.776 184.718 453.563 182.454V175.177Z" fill="#3C3C3B"/>
<path d="M478.953 143.629C478.927 142.744 479.08 141.863 479.402 141.038C479.723 140.212 480.208 139.461 480.827 138.827C481.446 138.193 482.185 137.69 483.003 137.348C483.82 137.007 484.697 136.833 485.583 136.837C487.079 136.851 488.532 137.345 489.726 138.248C490.92 139.15 491.793 140.412 492.215 141.848H493.831C495.899 140.033 498.311 138.654 500.924 137.793C503.537 136.932 506.296 136.607 509.038 136.837C512.758 136.837 514.699 139.909 514.699 143.629C514.699 147.35 512.761 150.425 509.038 150.425H505.962C496.421 150.425 493.509 153.337 493.509 160.292V194.259C493.509 196.19 492.742 198.041 491.377 199.406C490.012 200.771 488.16 201.538 486.229 201.538C484.299 201.538 482.447 200.771 481.082 199.406C479.717 198.041 478.95 196.19 478.95 194.259L478.953 143.629Z" fill="#3C3C3B"/>
<path d="M47.3107 217.718C41.4758 217.768 35.6893 216.656 30.2887 214.446C24.8882 212.236 19.9818 208.973 15.8557 204.847C11.7297 200.721 8.46655 195.815 6.25671 190.414C4.04686 185.014 2.93455 179.227 2.98465 173.392V166.606L28.5719 161.029V173.392C28.5719 178.362 30.5464 183.129 34.0609 186.644C37.5754 190.158 42.3421 192.133 47.3123 192.133C52.2826 192.133 57.0492 190.158 60.5637 186.644C64.0782 183.129 66.0526 178.362 66.0526 173.392V152.878L91.6368 147.301V173.402C91.6641 179.23 90.5363 185.007 88.3184 190.397C86.1005 195.787 82.8365 200.684 78.715 204.806C74.5935 208.927 69.6961 212.191 64.3059 214.409C58.9157 216.627 53.1393 217.755 47.3107 217.728V217.718Z" fill="#1BD1EA"/>
<path d="M89.3539 150.129V173.396C89.3539 178.917 88.2664 184.384 86.1535 189.485C84.0407 194.586 80.9439 199.221 77.0398 203.125C73.1357 207.029 68.5009 210.126 63.4 212.239C58.2991 214.351 52.8319 215.439 47.3107 215.439C41.7895 215.439 36.3224 214.351 31.2215 212.239C26.1206 210.126 21.4857 207.029 17.5817 203.125C13.6776 199.221 10.5807 194.586 8.46782 189.485C6.35495 184.384 5.26753 178.917 5.26753 173.396V168.448L26.2891 163.87V173.396C26.2891 178.971 28.5038 184.318 32.4462 188.26C36.3885 192.203 41.7355 194.417 47.3107 194.417C52.886 194.417 58.2329 192.203 62.1752 188.26C66.1175 184.318 68.3323 178.971 68.3323 173.396V154.71L89.3539 150.129ZM93.9196 144.461L88.3832 145.67L67.3615 150.248L63.7667 151.031V173.396C63.817 175.58 63.4155 177.75 62.5872 179.772C61.7589 181.793 60.5218 183.621 58.9535 185.142C56.6547 187.475 53.7104 189.067 50.4995 189.712C47.2885 190.358 43.9578 190.027 40.936 188.764C37.9142 187.501 35.3396 185.362 33.5435 182.623C31.7475 179.884 30.8122 176.671 30.858 173.396V158.202L25.3215 159.407L4.29984 163.989L0.70497 164.772V173.396C0.654902 179.53 1.82627 185.614 4.15086 191.291C6.47544 196.969 9.90668 202.127 14.2447 206.465C18.5828 210.803 23.7409 214.234 29.4184 216.559C35.0958 218.883 41.1792 220.055 47.3139 220.005C53.4423 220.032 59.5154 218.845 65.1826 216.513C70.8499 214.18 75.9988 210.748 80.3323 206.414C84.6658 202.081 88.0979 196.932 90.4306 191.265C92.7632 185.597 93.9501 179.524 93.9227 173.396L93.9196 144.461Z" fill="#1BD1EA"/>
</svg>
