<svg width="24" height="24" viewBox="0 0 24 24" fill="none" xmlns="http://www.w3.org/2000/svg">
<path d="M21.4286 1.71429H18V0.857143C18 0.629814 17.9097 0.411797 17.7489 0.251051C17.5882 0.0903058 17.3702 0 17.1429 0C16.9155 0 16.6975 0.0903058 16.5368 0.251051C16.376 0.411797 16.2857 0.629814 16.2857 0.857143V1.71429H7.71429V0.857143C7.71429 0.629814 7.62398 0.411797 7.46323 0.251051C7.30249 0.0903058 7.08447 0 6.85714 0C6.62981 0 6.4118 0.0903058 6.25105 0.251051C6.09031 0.411797 6 0.629814 6 0.857143V1.71429H2.57143C1.88944 1.71429 1.23539 1.9852 0.753154 2.46744C0.270918 2.94968 0 3.60373 0 4.28571V21.4286C0 22.1106 0.270918 22.7646 0.753154 23.2468C1.23539 23.7291 1.88944 24 2.57143 24H21.4286C22.1106 24 22.7646 23.7291 23.2468 23.2468C23.7291 22.7646 24 22.1106 24 21.4286V4.28571C24 3.60373 23.7291 2.94968 23.2468 2.46744C22.7646 1.9852 22.1106 1.71429 21.4286 1.71429ZM2.57143 3.42857H21.4286C21.6559 3.42857 21.8739 3.51888 22.0347 3.67962C22.1954 3.84037 22.2857 4.05839 22.2857 4.28571V6.85714H1.71429V4.28571C1.71429 4.05839 1.80459 3.84037 1.96534 3.67962C2.12608 3.51888 2.3441 3.42857 2.57143 3.42857ZM21.4286 22.2857H2.57143C2.3441 22.2857 2.12608 22.1954 1.96534 22.0347C1.80459 21.8739 1.71429 21.6559 1.71429 21.4286V8.57143H22.2857V21.4286C22.2857 21.6559 22.1954 21.8739 22.0347 22.0347C21.8739 22.1954 21.6559 22.2857 21.4286 22.2857Z" fill="black"/>
<path d="M15.7267 11.35L10.3267 15.9786L8.31589 13.9686C8.15423 13.8124 7.93772 13.726 7.71298 13.728C7.48824 13.7299 7.27325 13.8201 7.11433 13.979C6.95541 14.1379 6.86527 14.3529 6.86331 14.5777C6.86136 14.8024 6.94776 15.0189 7.10389 15.1806L9.67532 17.752C9.828 17.9045 10.0326 17.9937 10.2482 18.002C10.4638 18.0103 10.6746 17.9369 10.8385 17.7966L16.8385 12.6537C16.9288 12.5821 17.0037 12.493 17.0588 12.3917C17.1139 12.2904 17.148 12.1791 17.159 12.0643C17.1701 11.9496 17.1579 11.8338 17.1232 11.7239C17.0884 11.6139 17.0319 11.5122 16.9569 11.4246C16.8819 11.337 16.79 11.2655 16.6867 11.2143C16.5835 11.1631 16.4709 11.1332 16.3558 11.1265C16.2408 11.1197 16.1255 11.1363 16.017 11.1751C15.9084 11.214 15.8089 11.2743 15.7242 11.3526L15.7267 11.35Z" fill="black"/>
</svg>
