<svg width="30" height="30" viewBox="0 0 30 30" fill="none" xmlns="http://www.w3.org/2000/svg">
<g clip-path="url(#clip0_2944_2549)">
<path d="M26.4478 4.26953C26.8992 4.26953 27.2651 3.90358 27.2651 3.45215C27.2651 3.00072 26.8992 2.63477 26.4478 2.63477C25.9963 2.63477 25.6304 3.00072 25.6304 3.45215C25.6304 3.90358 25.9963 4.26953 26.4478 4.26953Z" fill="#1BD1EA"/>
<path d="M28.0825 10.8633C28.5339 10.8633 28.8999 10.4973 28.8999 10.0459C28.8999 9.59447 28.5339 9.22852 28.0825 9.22852C27.6311 9.22852 27.2651 9.59447 27.2651 10.0459C27.2651 10.4973 27.6311 10.8633 28.0825 10.8633Z" fill="#1BD1EA"/>
<path d="M15.0045 28.9C20.9624 28.9 26.2491 25.0491 28.16 19.3993C28.2766 19.0553 28.1513 18.6753 27.8535 18.467C27.5566 18.2602 27.1567 18.273 26.8725 18.5013C25.1108 19.9213 22.9851 20.6717 20.7262 20.6717C15.3174 20.6717 10.8631 16.2719 10.8631 10.8631C10.8631 7.48103 12.6346 4.32462 15.5114 2.51183C15.8195 2.31784 15.9264 1.9419 15.8251 1.59228C15.7245 1.24265 15.3685 1 15.0045 1C7.34235 1 1 7.28785 1 14.95C1 22.6121 7.34235 28.9 15.0045 28.9Z" fill="#1BD1EA"/>
<path d="M16.6392 7.59355C17.9913 7.59355 19.0913 8.69353 19.0913 10.0457C19.0913 10.4975 19.4569 10.8631 19.9087 10.8631C20.3605 10.8631 20.7261 10.4975 20.7261 10.0457C20.7261 8.69353 21.8261 7.59355 23.1782 7.59355C23.63 7.59355 23.9956 7.22797 23.9956 6.77617C23.9956 6.32438 23.63 5.95879 23.1782 5.95879C21.8261 5.95879 20.7261 4.80432 20.7261 3.45215C20.7261 3.00035 20.3605 2.63477 19.9087 2.63477C19.4569 2.63477 19.0913 3.00035 19.0913 3.45215C19.0913 4.80432 17.9913 5.95879 16.6392 5.95879C16.1874 5.95879 15.8218 6.32438 15.8218 6.77617C15.8218 7.22797 16.1874 7.59355 16.6392 7.59355Z" fill="#1BD1EA"/>
</g>
<defs>
<clipPath id="clip0_2944_2549">
<rect width="27.9" height="27.9" fill="white" transform="translate(1 1)"/>
</clipPath>
</defs>
</svg>
