<svg width="290" height="32" viewBox="0 0 290 32" fill="none" xmlns="http://www.w3.org/2000/svg">
<g clip-path="url(#clip0_76_5717)">
<path d="M11.0221 0.529297H0V3.61175H11.0221C17.8097 3.61175 23.3519 9.15395 23.3519 15.9416C23.3519 22.7292 17.8097 28.2714 11.0221 28.2714H3.09802V15.4901H0V31.3539H11.0221C19.4755 31.3539 26.4344 24.4417 26.4344 15.9416C26.4344 7.48818 19.4755 0.529297 11.0221 0.529297Z" fill="url(#paint0_linear_76_5717)"/>
<path d="M40.788 31.3694H37.7056V0.529297H40.788V31.3694Z" fill="url(#paint1_linear_76_5717)"/>
<path d="M56.169 30.5755C54.223 29.7348 52.4638 28.4582 50.8447 26.8236L53.0554 24.6597C55.7486 27.384 58.9556 28.8007 62.6141 28.8007C67.1444 28.8007 70.2424 26.341 70.2424 22.6825V22.5891C70.2424 21.0012 69.8065 19.8959 68.7479 19.024C67.518 18.0121 65.3541 17.1248 62.1471 16.4242C58.582 15.6769 56.2468 14.7429 54.7056 13.513C53.0709 12.1897 52.277 10.4305 52.277 8.14204V8.0642C52.277 6.95888 52.4949 5.90026 52.9775 4.93504C53.4134 3.96983 54.0829 3.08246 54.9235 2.33519C56.6516 0.84067 59.0335 0 61.6333 0C63.3925 0 65.1517 0.358063 66.8797 0.965214C68.421 1.58793 69.8688 2.41303 71.2855 3.56506L69.355 5.94696C66.9731 4.04767 64.3733 3.08246 61.6489 3.08246C59.7963 3.08246 58.1305 3.65847 56.9785 4.67039C55.9199 5.5889 55.3439 6.78763 55.3439 8.0642V8.15761C55.3439 9.52759 55.7019 10.3683 56.6204 11.1155C57.7725 12.034 59.7496 12.7969 62.8321 13.4507C66.5839 14.2914 69.0904 15.3033 70.7562 16.7044C72.4686 18.1522 73.3093 20.0982 73.3093 22.6047V22.6981C73.3093 25.2979 72.2507 27.6331 70.3202 29.2989C68.3743 31.0114 65.6966 31.8988 62.6141 31.8988C60.3101 31.8988 58.1461 31.4473 56.169 30.5755Z" fill="url(#paint2_linear_76_5717)"/>
<path d="M99.8687 18.4013C102.904 16.829 104.975 13.6531 104.975 9.99462C104.975 4.79492 100.756 0.529297 95.5096 0.529297H82.9463V3.61175H95.5096C99.028 3.61175 101.892 6.47626 101.892 9.99462C101.892 13.513 99.028 16.3775 95.5096 16.3775H82.9463V31.3539H86.0287V19.4599H95.5096C95.9922 19.4599 96.4281 19.4288 96.8796 19.3821L103.122 31.3539H106.61L99.8687 18.4013Z" fill="url(#paint3_linear_76_5717)"/>
<path d="M128.825 0.529297H125.478L113.63 31.3539H116.931L120.729 21.4526L121.741 18.8061L127.159 4.70151L132.577 18.8061H132.561L133.573 21.4526H133.588L137.372 31.3539H140.687L128.825 0.529297Z" fill="url(#paint4_linear_76_5717)"/>
<path d="M163.277 0.529297H150.76V3.61175H163.277C166.811 3.61175 169.66 6.47626 169.66 9.99462C169.66 13.513 166.811 16.3775 163.277 16.3775H150.76V31.3539H153.858V19.4599H163.277C168.523 19.4599 172.758 15.1943 172.758 9.99462C172.758 4.79492 168.523 0.529297 163.277 0.529297Z" fill="url(#paint5_linear_76_5717)"/>
<path d="M202.711 3.61175H191.47V31.3694H188.388V3.61175H177.148V0.529297H202.695V3.61175H202.711Z" fill="url(#paint6_linear_76_5717)"/>
<path d="M213.266 31.3694H210.183V0.529297H213.266V31.3694Z" fill="url(#paint7_linear_76_5717)"/>
<path d="M255.268 15.9416C255.268 24.7064 248.091 31.8832 239.326 31.8832C230.562 31.8832 223.385 24.7064 223.385 15.9416C223.385 7.17683 230.562 0 239.326 0C248.091 0 255.268 7.17683 255.268 15.9416ZM252.185 15.9416C252.185 8.8426 246.41 3.08246 239.326 3.08246C232.227 3.08246 226.467 8.85817 226.467 15.9416C226.467 23.0406 232.243 28.8007 239.326 28.8007C246.425 28.8163 252.185 23.0406 252.185 15.9416Z" fill="url(#paint8_linear_76_5717)"/>
<path d="M290 31.3694H286.217L268.423 4.98173V31.3694H265.34V0.529297H269.123L286.918 26.917V0.529297H290V31.3694Z" fill="url(#paint9_linear_76_5717)"/>
</g>
<defs>
<linearGradient id="paint0_linear_76_5717" x1="-0.172182" y1="15.9466" x2="289.989" y2="15.9466" gradientUnits="userSpaceOnUse">
<stop stop-color="#EA33C7"/>
<stop offset="1" stop-color="#0507EA"/>
</linearGradient>
<linearGradient id="paint1_linear_76_5717" x1="-0.172251" y1="15.9473" x2="289.989" y2="15.9473" gradientUnits="userSpaceOnUse">
<stop stop-color="#EA33C7"/>
<stop offset="1" stop-color="#0507EA"/>
</linearGradient>
<linearGradient id="paint2_linear_76_5717" x1="-0.172422" y1="15.9474" x2="289.989" y2="15.9474" gradientUnits="userSpaceOnUse">
<stop stop-color="#EA33C7"/>
<stop offset="1" stop-color="#0507EA"/>
</linearGradient>
<linearGradient id="paint3_linear_76_5717" x1="-0.172027" y1="15.9466" x2="289.99" y2="15.9466" gradientUnits="userSpaceOnUse">
<stop stop-color="#EA33C7"/>
<stop offset="1" stop-color="#0507EA"/>
</linearGradient>
<linearGradient id="paint4_linear_76_5717" x1="-0.172411" y1="15.9466" x2="289.989" y2="15.9466" gradientUnits="userSpaceOnUse">
<stop stop-color="#EA33C7"/>
<stop offset="1" stop-color="#0507EA"/>
</linearGradient>
<linearGradient id="paint5_linear_76_5717" x1="-0.172132" y1="15.9466" x2="289.989" y2="15.9466" gradientUnits="userSpaceOnUse">
<stop stop-color="#EA33C7"/>
<stop offset="1" stop-color="#0507EA"/>
</linearGradient>
<linearGradient id="paint6_linear_76_5717" x1="-0.172143" y1="15.9473" x2="289.989" y2="15.9473" gradientUnits="userSpaceOnUse">
<stop stop-color="#EA33C7"/>
<stop offset="1" stop-color="#0507EA"/>
</linearGradient>
<linearGradient id="paint7_linear_76_5717" x1="-0.173312" y1="15.9473" x2="289.99" y2="15.9473" gradientUnits="userSpaceOnUse">
<stop stop-color="#EA33C7"/>
<stop offset="1" stop-color="#0507EA"/>
</linearGradient>
<linearGradient id="paint8_linear_76_5717" x1="-0.172069" y1="15.9474" x2="289.989" y2="15.9474" gradientUnits="userSpaceOnUse">
<stop stop-color="#EA33C7"/>
<stop offset="1" stop-color="#0507EA"/>
</linearGradient>
<linearGradient id="paint9_linear_76_5717" x1="-0.172144" y1="15.9473" x2="289.989" y2="15.9473" gradientUnits="userSpaceOnUse">
<stop stop-color="#EA33C7"/>
<stop offset="1" stop-color="#0507EA"/>
</linearGradient>
<clipPath id="clip0_76_5717">
<rect width="290" height="31.8988" fill="white"/>
</clipPath>
</defs>
</svg>
