<svg width="30" height="30" viewBox="0 0 30 30" fill="none" xmlns="http://www.w3.org/2000/svg">
<path fill-rule="evenodd" clip-rule="evenodd" d="M15 6.5814C12.5024 6.58287 10.1076 7.57566 8.34163 9.34167C6.57562 11.1077 5.58283 13.5025 5.58135 16C5.58135 16.5777 6.05019 17.0465 6.62786 17.0465H23.372C23.6496 17.0465 23.9158 16.9363 24.112 16.74C24.3083 16.5437 24.4186 16.2776 24.4186 16C24.4171 13.5025 23.4243 11.1077 21.6583 9.34167C19.8923 7.57566 17.4975 6.58287 15 6.5814ZM13.9534 2.04651V4.13953C13.9534 4.41709 14.0637 4.68327 14.26 4.87953C14.4562 5.07579 14.7224 5.18605 15 5.18605C15.2775 5.18605 15.5437 5.07579 15.74 4.87953C15.9362 4.68327 16.0465 4.41709 16.0465 4.13953V2.04651C16.0465 1.76896 15.9362 1.50278 15.74 1.30652C15.5437 1.11026 15.2775 1 15 1C14.7224 1 14.4562 1.11026 14.26 1.30652C14.0637 1.50278 13.9534 1.76896 13.9534 2.04651ZM7.11624 4.43953L8.16275 6.25209C8.3072 6.48112 8.53469 6.64534 8.79754 6.71033C9.0604 6.77533 9.33821 6.73606 9.57275 6.60075C9.80729 6.46544 9.98035 6.24459 10.0557 5.9845C10.131 5.72441 10.1027 5.44527 9.9767 5.20558L8.93019 3.39302C8.86147 3.27392 8.76997 3.16951 8.66091 3.08577C8.55184 3.00203 8.42735 2.94058 8.29454 2.90495C8.16173 2.86932 8.02321 2.8602 7.88687 2.8781C7.75054 2.896 7.61906 2.94059 7.49996 3.0093C7.38085 3.07802 7.27645 3.16952 7.1927 3.27858C7.10896 3.38765 7.04752 3.51214 7.01189 3.64495C6.97625 3.77776 6.96713 3.91628 6.98503 4.05262C7.00294 4.18896 7.04752 4.32043 7.11624 4.43953ZM2.39298 9.93023L4.20554 10.9767C4.44523 11.1027 4.72437 11.131 4.98446 11.0557C5.24455 10.9804 5.46539 10.8073 5.6007 10.5728C5.73601 10.3383 5.77529 10.0604 5.71029 9.79759C5.64529 9.53473 5.48107 9.30724 5.25205 9.16279L3.43949 8.11628C3.19895 7.9775 2.91313 7.93997 2.6449 8.01193C2.37668 8.08389 2.14804 8.25945 2.00926 8.5C1.87048 8.74054 1.83295 9.02637 1.90491 9.29459C1.97687 9.56281 2.15244 9.79146 2.39298 9.93023Z" fill="#1BD1EA"/>
<path fill-rule="evenodd" clip-rule="evenodd" d="M1.04651 17.0465H28.9535C29.231 17.0465 29.4972 16.9362 29.6935 16.7399C29.8897 16.5437 30 16.2775 30 16C30 15.7224 29.8897 15.4562 29.6935 15.26C29.4972 15.0637 29.231 14.9534 28.9535 14.9534H1.04651C0.76896 14.9534 0.502775 15.0637 0.306516 15.26C0.110257 15.4562 0 15.7224 0 16C0 16.2775 0.110257 16.5437 0.306516 16.7399C0.502775 16.9362 0.76896 17.0465 1.04651 17.0465ZM13.6047 21.2325H26.1628C26.4403 21.2325 26.7065 21.1223 26.9028 20.926C27.099 20.7297 27.2093 20.4636 27.2093 20.186C27.2093 19.9084 27.099 19.6423 26.9028 19.446C26.7065 19.2497 26.4403 19.1395 26.1628 19.1395H13.6047C13.3271 19.1395 13.0609 19.2497 12.8647 19.446C12.6684 19.6423 12.5581 19.9084 12.5581 20.186C12.5581 20.4636 12.6684 20.7297 12.8647 20.926C13.0609 21.1223 13.3271 21.2325 13.6047 21.2325ZM14.3023 23.3255H8.02326C7.7457 23.3255 7.47952 23.4358 7.28326 23.6321C7.087 23.8283 6.97674 24.0945 6.97674 24.372C6.97674 24.6496 7.087 24.9158 7.28326 25.112C7.47952 25.3083 7.7457 25.4186 8.02326 25.4186H14.3023C14.5799 25.4186 14.8461 25.3083 15.0423 25.112C15.2386 24.9158 15.3488 24.6496 15.3488 24.372C15.3488 24.0945 15.2386 23.8283 15.0423 23.6321C14.8461 23.4358 14.5799 23.3255 14.3023 23.3255ZM3.83721 21.2325H8.02326C8.30081 21.2325 8.56699 21.1223 8.76325 20.926C8.95951 20.7297 9.06977 20.4636 9.06977 20.186C9.06977 19.9084 8.95951 19.6423 8.76325 19.446C8.56699 19.2497 8.30081 19.1395 8.02326 19.1395H3.83721C3.55966 19.1395 3.29347 19.2497 3.09721 19.446C2.90095 19.6423 2.7907 19.9084 2.7907 20.186C2.7907 20.4636 2.90095 20.7297 3.09721 20.926C3.29347 21.1223 3.55966 21.2325 3.83721 21.2325ZM21.9767 23.3255H19.8837C19.6062 23.3255 19.34 23.4358 19.1437 23.6321C18.9475 23.8283 18.8372 24.0945 18.8372 24.372C18.8372 24.6496 18.9475 24.9158 19.1437 25.112C19.34 25.3083 19.6062 25.4186 19.8837 25.4186H21.9767C22.2543 25.4186 22.5205 25.3083 22.7167 25.112C22.913 24.9158 23.0233 24.6496 23.0233 24.372C23.0233 24.0945 22.913 23.8283 22.7167 23.6321C22.5205 23.4358 22.2543 23.3255 21.9767 23.3255ZM25.7944 10.9767L27.607 9.93019C27.8475 9.79141 28.0231 9.56276 28.0951 9.29454C28.167 9.02632 28.1295 8.7405 27.9907 8.49995C27.8519 8.25941 27.6233 8.08384 27.3551 8.01188C27.0868 7.93992 26.801 7.97746 26.5605 8.11623L24.7479 9.16275C24.5189 9.3072 24.3547 9.53469 24.2897 9.79754C24.2247 10.0604 24.2639 10.3382 24.3993 10.5727C24.5346 10.8073 24.7554 10.9803 25.0155 11.0556C25.2756 11.131 25.5547 11.1027 25.7944 10.9767ZM21.8372 6.25205L22.8837 4.43949C22.9524 4.32038 22.997 4.18891 23.0149 4.05257C23.0328 3.91624 23.0237 3.77771 22.9881 3.6449C22.9524 3.51209 22.891 3.3876 22.8073 3.27854C22.7235 3.16947 22.6191 3.07797 22.5 3.00926C22.3809 2.94054 22.2494 2.89596 22.1131 2.87805C21.9767 2.86015 21.8382 2.86927 21.7054 2.90491C21.5726 2.94054 21.4481 3.00198 21.339 3.08572C21.23 3.16947 21.1385 3.27387 21.0698 3.39298L20.0233 5.20554C19.8973 5.44522 19.869 5.72437 19.9443 5.98446C20.0196 6.24455 20.1927 6.46539 20.4272 6.6007C20.6617 6.73601 20.9396 6.77529 21.2024 6.71029C21.4653 6.64529 21.6928 6.48107 21.8372 6.25205Z" fill="#1BD1EA"/>
<rect x="11.1628" y="26.6748" width="7.81395" height="2.23256" rx="1.11628" fill="#1BD1EA"/>
</svg>
