<svg width="24" height="24" viewBox="0 0 24 24" fill="none" xmlns="http://www.w3.org/2000/svg">
<g clip-path="url(#clip0_4538_101)">
<path d="M10.125 6.74916C10.125 7.68159 9.36909 8.4375 8.43666 8.4375H2.62584C1.69341 8.4375 0.9375 7.68159 0.9375 6.74916V2.62584C0.9375 1.69341 1.69341 0.9375 2.62584 0.9375H8.43661C9.36909 0.9375 10.125 1.69341 10.125 2.62584V6.74916ZM23.0625 11.9992C23.0625 12.9316 22.3066 13.6875 21.3742 13.6875H15.3758C14.4434 13.6875 13.6875 12.9316 13.6875 11.9992V2.62584C13.6875 1.69341 14.4434 0.9375 15.3758 0.9375H21.3741C22.3066 0.9375 23.0625 1.69341 23.0625 2.62584V11.9992ZM23.0625 21.3742C23.0625 22.3066 22.3066 23.0625 21.3742 23.0625H15.3758C14.4434 23.0625 13.6875 22.3066 13.6875 21.3742V19.1259C13.6875 18.1934 14.4434 17.4375 15.3758 17.4375H21.3741C22.3066 17.4375 23.0625 18.1934 23.0625 19.1258V21.3742ZM10.125 21.3742C10.125 22.3066 9.36909 23.0625 8.43666 23.0625H2.62584C1.69341 23.0625 0.9375 22.3066 0.9375 21.3742V13.6883C0.9375 12.7559 1.69341 12 2.62584 12H8.43661C9.36909 12 10.125 12.7559 10.125 13.6883V21.3742Z" stroke="black" stroke-width="1.5" stroke-miterlimit="10" stroke-linecap="round" stroke-linejoin="round"/>
</g>
<defs>
<clipPath id="clip0_4538_101">
<rect width="24" height="24" fill="white"/>
</clipPath>
</defs>
</svg>
