<svg width="25" height="24" viewBox="0 0 25 24" fill="none" xmlns="http://www.w3.org/2000/svg">
<g clip-path="url(#clip0_4539_114)">
<path d="M14.5 9.08984L23.31 10.8398C24.02 10.9898 24.5 11.5898 24.5 12.2998V22.4998C24.5 23.3298 23.83 23.9998 23 23.9998H14C14.28 23.9998 14.5 23.7798 14.5 23.4998V22.9998H23C23.27 22.9998 23.5 22.7798 23.5 22.4998V12.2998C23.5 12.0698 23.34 11.8598 23.11 11.8098L14.5 10.1098V9.08984Z" fill="black" stroke="black" stroke-width="0.5"/>
<path d="M20 13.9998C20.28 13.9998 20.5 14.2198 20.5 14.4998C20.5 14.7798 20.28 14.9998 20 14.9998H18C17.72 14.9998 17.5 14.7798 17.5 14.4998C17.5 14.2198 17.72 13.9998 18 13.9998H20ZM20 16.9998C20.28 16.9998 20.5 17.2198 20.5 17.4998C20.5 17.7798 20.28 17.9998 20 17.9998H18C17.72 17.9998 17.5 17.7798 17.5 17.4998C17.5 17.2198 17.72 16.9998 18 16.9998H20ZM20 19.9998C20.28 19.9998 20.5 20.2198 20.5 20.4998C20.5 20.7798 20.28 20.9998 20 20.9998H18C17.72 20.9998 17.5 20.7798 17.5 20.4998C17.5 20.2198 17.72 19.9998 18 19.9998H20ZM14.5 23.4998C14.5 23.7798 14.28 23.9998 14 23.9998C13.72 23.9998 13.5 23.7798 13.5 23.4998V9.49985C13.5 9.34985 13.57 9.20985 13.68 9.10985C13.8 9.01985 13.95 8.97985 14.1 9.00985L14.5 9.08985V22.9998V23.4998Z" fill="black" stroke="black" stroke-width="0.5"/>
<path d="M13.5 23V23.5C13.5 23.78 13.72 24 14 24H10C10.28 24 10.5 23.78 10.5 23.5V23H13.5ZM11 5C11.28 5 11.5 5.22 11.5 5.5C11.5 5.78 11.28 6 11 6H9C8.72 6 8.5 5.78 8.5 5.5C8.5 5.22 8.72 5 9 5H11ZM11.5 8.5C11.5 8.78 11.28 9 11 9H9C8.72 9 8.5 8.78 8.5 8.5C8.5 8.22 8.72 8 9 8H11C11.28 8 11.5 8.22 11.5 8.5ZM11 11C11.28 11 11.5 11.22 11.5 11.5C11.5 11.78 11.28 12 11 12H9C8.72 12 8.5 11.78 8.5 11.5C8.5 11.22 8.72 11 9 11H11ZM11 14C11.28 14 11.5 14.22 11.5 14.5C11.5 14.78 11.28 15 11 15H9C8.72 15 8.5 14.78 8.5 14.5C8.5 14.22 8.72 14 9 14H11ZM6.5 14.5C6.5 14.78 6.28 15 6 15H4C3.72 15 3.5 14.78 3.5 14.5C3.5 14.22 3.72 14 4 14H6C6.28 14 6.5 14.22 6.5 14.5ZM6 5C6.28 5 6.5 5.22 6.5 5.5C6.5 5.78 6.28 6 6 6H4C3.72 6 3.5 5.78 3.5 5.5C3.5 5.22 3.72 5 4 5H6ZM6 8C6.28 8 6.5 8.22 6.5 8.5C6.5 8.78 6.28 9 6 9H4C3.72 9 3.5 8.78 3.5 8.5C3.5 8.22 3.72 8 4 8H6ZM6 11C6.28 11 6.5 11.22 6.5 11.5C6.5 11.78 6.28 12 6 12H4C3.72 12 3.5 11.78 3.5 11.5C3.5 11.22 3.72 11 4 11H6ZM9.5 18.5C9.5 18.22 9.27 18 9 18H6C5.72 18 5.5 18.22 5.5 18.5V23H4.5V18.5C4.5 17.67 5.17 17 6 17H9C9.83 17 10.5 17.67 10.5 18.5V23H9.5V18.5Z" fill="black"/>
<path d="M10.5 23V23.5C10.5 23.78 10.28 24 10 24H14C13.72 24 13.5 23.78 13.5 23.5V23H10.5ZM10.5 23V18.5C10.5 17.67 9.83 17 9 17H6C5.17 17 4.5 17.67 4.5 18.5V23H5.5V18.5C5.5 18.22 5.72 18 6 18H9C9.27 18 9.5 18.22 9.5 18.5V23H10.5ZM11 5C11.28 5 11.5 5.22 11.5 5.5C11.5 5.78 11.28 6 11 6H9C8.72 6 8.5 5.78 8.5 5.5C8.5 5.22 8.72 5 9 5H11ZM11.5 8.5C11.5 8.78 11.28 9 11 9H9C8.72 9 8.5 8.78 8.5 8.5C8.5 8.22 8.72 8 9 8H11C11.28 8 11.5 8.22 11.5 8.5ZM11 11C11.28 11 11.5 11.22 11.5 11.5C11.5 11.78 11.28 12 11 12H9C8.72 12 8.5 11.78 8.5 11.5C8.5 11.22 8.72 11 9 11H11ZM11 14C11.28 14 11.5 14.22 11.5 14.5C11.5 14.78 11.28 15 11 15H9C8.72 15 8.5 14.78 8.5 14.5C8.5 14.22 8.72 14 9 14H11ZM6.5 14.5C6.5 14.78 6.28 15 6 15H4C3.72 15 3.5 14.78 3.5 14.5C3.5 14.22 3.72 14 4 14H6C6.28 14 6.5 14.22 6.5 14.5ZM6 5C6.28 5 6.5 5.22 6.5 5.5C6.5 5.78 6.28 6 6 6H4C3.72 6 3.5 5.78 3.5 5.5C3.5 5.22 3.72 5 4 5H6ZM6 8C6.28 8 6.5 8.22 6.5 8.5C6.5 8.78 6.28 9 6 9H4C3.72 9 3.5 8.78 3.5 8.5C3.5 8.22 3.72 8 4 8H6ZM6 11C6.28 11 6.5 11.22 6.5 11.5C6.5 11.78 6.28 12 6 12H4C3.72 12 3.5 11.78 3.5 11.5C3.5 11.22 3.72 11 4 11H6Z" stroke="black" stroke-width="0.5"/>
<path d="M5.5 23H10.5V23.5C10.5 23.78 10.28 24 10 24H5C4.72 24 4.5 23.78 4.5 23.5V23H5.5Z" fill="black" stroke="black" stroke-width="0.5"/>
<path d="M2.25 0.199156L13.24 1.86916C13.97 1.98916 14.5 2.60916 14.5 3.34916V9.08916L14.1 9.00916C13.95 8.97916 13.8 9.01916 13.68 9.10916C13.57 9.20916 13.5 9.34916 13.5 9.49916V3.34916C13.5 3.09916 13.32 2.88916 13.08 2.84916L2.09 1.18916C2.06 1.17916 2.03 1.17916 2 1.17916C1.88 1.17916 1.77 1.21916 1.68 1.29916C1.56 1.39916 1.5 1.52916 1.5 1.67916V22.4992C1.5 22.7792 1.73 22.9992 2 22.9992H4.5V23.4992C4.5 23.7792 4.72 23.9992 5 23.9992H2C1.17 23.9992 0.5 23.3292 0.5 22.4992V1.67916C0.5 1.23916 0.69 0.819156 1.03 0.539156C1.37 0.249157 1.81 0.129156 2.25 0.199156Z" fill="black" stroke="black" stroke-width="0.5"/>
</g>
<defs>
<clipPath id="clip0_4539_114">
<rect width="24" height="24" fill="white" transform="translate(0.5)"/>
</clipPath>
</defs>
</svg>
