<svg width="24" height="24" viewBox="0 0 24 24" fill="none" xmlns="http://www.w3.org/2000/svg">
<path d="M23.3141 4.44177L12.4054 0.0782892C12.2398 0.011924 12.0604 -0.0128146 11.8831 0.00624117C11.7057 0.025297 11.5357 0.0875657 11.388 0.187591C11.2402 0.287616 11.1193 0.422344 11.0357 0.57997C10.9522 0.737595 10.9086 0.913308 10.9087 1.09171V5.45519H1.09087C0.801554 5.45519 0.524087 5.57012 0.319509 5.7747C0.114931 5.97928 0 6.25675 0 6.54606V22.9091C0 23.1984 0.114931 23.4759 0.319509 23.6805C0.524087 23.8851 0.801554 24 1.09087 24H22.9083C23.1976 24 23.4751 23.8851 23.6797 23.6805C23.8842 23.4759 23.9992 23.1984 23.9992 22.9091V5.45519C23.9993 5.23715 23.9342 5.02406 23.812 4.84343C23.6899 4.66279 23.5165 4.52288 23.3141 4.44177ZM2.18174 7.63694H10.9087V21.8183H2.18174V7.63694ZM13.0905 21.8183V2.70293L21.8174 6.19371V7.63694H15.2722V9.81868H21.8174V12.0004H15.2722V14.1822H21.8174V16.3639H15.2722V18.5456H21.8174V21.8183H13.0905ZM6.54523 12.0004H9.81784V14.1822H6.54523V12.0004ZM3.27261 12.0004H5.45435V14.1822H3.27261V12.0004ZM6.54523 8.72781H9.81784V10.9095H6.54523V8.72781ZM3.27261 8.72781H5.45435V10.9095H3.27261V8.72781ZM6.54523 15.273H9.81784V17.4548H6.54523V15.273ZM3.27261 15.273H5.45435V17.4548H3.27261V15.273ZM6.54523 18.5456H9.81784V20.7274H6.54523V18.5456ZM3.27261 18.5456H5.45435V20.7274H3.27261V18.5456Z" fill="black"/>
</svg>
