<svg width="24" height="24" viewBox="0 0 24 24" fill="none" xmlns="http://www.w3.org/2000/svg">
<g clip-path="url(#clip0_4538_104)">
<path d="M23.8979 21.8925C23.7367 21.69 23.4418 21.6566 23.2394 21.8179C22.7341 22.2203 22.0279 22.2209 21.5216 21.8192L21.5146 21.8136C20.665 21.1394 19.479 21.1405 18.6306 21.8162C18.1251 22.2188 17.4194 22.2194 16.9134 21.818C16.9126 21.8174 16.9118 21.8167 16.9111 21.8161C16.0627 21.1405 14.8768 21.1393 14.0269 21.8138L14.0179 21.821C13.5129 22.2218 12.8074 22.2218 12.3024 21.8211L12.2929 21.8135C11.4432 21.1393 10.2574 21.1405 9.40702 21.8177C8.90176 22.2201 8.19549 22.2207 7.68929 21.819L7.68043 21.812C6.83209 21.1386 5.64723 21.1387 4.79893 21.8123L4.79016 21.8192C4.28415 22.221 3.5777 22.2204 3.07416 21.8194L3.07041 21.8164C2.22184 21.1405 1.03595 21.1394 0.185915 21.814L0.177008 21.821C-0.0255855 21.9821 -0.0592417 22.2769 0.101821 22.4795C0.262883 22.682 0.557586 22.7158 0.760274 22.5547L0.768946 22.5479C1.27487 22.1464 1.98123 22.1469 2.48466 22.548L2.48841 22.551C3.33713 23.227 4.52335 23.228 5.37315 22.5532L5.38191 22.5462C5.88704 22.1451 6.59274 22.1451 7.09805 22.5462L7.10691 22.5532C7.95662 23.2277 9.1426 23.2266 9.99301 22.5493C10.4982 22.1469 11.2044 22.1463 11.7104 22.5477L11.7199 22.5552C12.1439 22.8918 12.6519 23.06 13.1601 23.06C13.6683 23.0599 14.1767 22.8916 14.6008 22.555L14.6099 22.5478C15.115 22.1468 15.82 22.1468 16.3252 22.5476L16.3275 22.5494C17.1774 23.2264 18.3646 23.2263 19.2146 22.5493C19.7199 22.1469 20.426 22.1463 20.9324 22.5481L20.9394 22.5536C21.789 23.2278 22.9748 23.2268 23.8233 22.551C24.0257 22.3897 24.0591 22.0949 23.8979 21.8925ZM5.60705 16.541C5.51914 16.4532 5.4 16.4039 5.27574 16.4037C5.15251 16.4037 5.03162 16.4534 4.94443 16.541C4.85688 16.6291 4.80755 16.7482 4.80713 16.8724C4.80758 16.9965 4.8569 17.1156 4.94443 17.2037C5.03252 17.2912 5.15155 17.3406 5.27574 17.341C5.39945 17.341 5.51987 17.2908 5.60705 17.2037C5.69461 17.1156 5.74394 16.9966 5.74435 16.8724C5.74391 16.7482 5.69458 16.6291 5.60705 16.541ZM3.30559 20.1662L3.29902 20.1607C2.3788 19.3983 1.64768 18.4331 1.16302 17.3408H3.11823C3.37698 17.3408 3.58684 17.131 3.58684 16.8722C3.58684 16.6134 3.37698 16.4036 3.11823 16.4036H0.47579C0.40115 16.4036 0.327592 16.4214 0.261234 16.4556C0.194875 16.4898 0.137635 16.5393 0.0942739 16.6001C0.0509397 16.6608 0.0227392 16.7311 0.0120179 16.8049C0.00129662 16.8788 0.00836433 16.9541 0.0326333 17.0247C0.550848 18.5312 1.47394 19.8658 2.70066 20.8822L2.70699 20.8875C2.79092 20.9574 2.89673 20.9956 3.00596 20.9955C3.0749 20.9956 3.143 20.9804 3.20541 20.9511C3.26781 20.9218 3.32297 20.8791 3.36695 20.826C3.53223 20.6269 3.50471 20.3314 3.30559 20.1662ZM23.9129 16.6001C23.8696 16.5393 23.8123 16.4898 23.746 16.4556C23.6796 16.4214 23.606 16.4036 23.5314 16.4036H12.4722V1.40806C12.4722 1.14927 12.2623 0.939453 12.0036 0.939453C11.7448 0.939453 11.535 1.14927 11.535 1.40806V16.4036H7.20029C6.94154 16.4036 6.73168 16.6134 6.73168 16.8722C6.73168 17.131 6.94154 17.3408 7.20029 17.3408H22.8442C22.3595 18.4332 21.6283 19.3985 20.708 20.1609L20.7016 20.1662C20.5025 20.3314 20.475 20.6269 20.6402 20.826C20.6842 20.8791 20.7393 20.9218 20.8017 20.9511C20.8641 20.9804 20.9322 20.9955 21.0011 20.9954C21.1104 20.9955 21.2161 20.9573 21.3001 20.8874L21.3062 20.8824C22.533 19.866 23.4562 18.5312 23.9745 17.0247C23.9988 16.9541 24.0059 16.8788 23.9952 16.8049C23.9845 16.731 23.9563 16.6608 23.9129 16.6001Z" fill="black" stroke="black" stroke-width="0.3"/>
<path d="M14.21 7.4205C14.122 7.33294 14.0029 7.28361 13.8788 7.2832C13.7555 7.2832 13.6346 7.33336 13.5475 7.4205C13.4599 7.50857 13.4106 7.62761 13.4102 7.75181C13.4102 7.87505 13.4603 7.99594 13.5475 8.08313C13.6346 8.17031 13.7555 8.22042 13.8788 8.22042C14.002 8.22042 14.1229 8.17027 14.21 8.08313C14.2976 7.99506 14.347 7.87602 14.3474 7.75181C14.3474 7.62858 14.2972 7.50764 14.21 7.4205Z" fill="black" stroke="black" stroke-width="0.3"/>
<path d="M19.6865 7.32106C18.5188 5.01045 16.7999 2.97744 14.7156 1.44181L14.1578 1.03081C14.088 0.979387 14.0054 0.948329 13.919 0.94109C13.8326 0.933851 13.7459 0.950715 13.6686 0.989807C13.5912 1.0289 13.5262 1.08868 13.4808 1.16252C13.4353 1.23635 13.4113 1.32133 13.4113 1.40801V5.74067C13.4113 5.99947 13.6212 6.20928 13.8799 6.20928C14.1387 6.20928 14.3485 5.99947 14.3485 5.74067V2.33759C18.1018 5.19214 20.3846 9.63509 20.5271 14.3417H14.3485V9.39495C14.3485 9.13615 14.1387 8.92634 13.8799 8.92634C13.6212 8.92634 13.4113 9.13615 13.4113 9.39495V14.8103C13.4113 14.9345 13.4607 15.0537 13.5485 15.1416C13.6364 15.2295 13.7556 15.2789 13.8799 15.2789H21.0027C21.2615 15.2789 21.4713 15.0691 21.4713 14.8103C21.4713 12.2214 20.8541 9.63167 19.6865 7.32106ZM10.2442 3.32108C10.1427 3.29577 10.0357 3.30516 9.94017 3.34775C9.84464 3.39033 9.7661 3.46366 9.71708 3.55606L3.85944 14.5905C3.82151 14.6619 3.80271 14.7419 3.80485 14.8228C3.807 14.9036 3.83003 14.9825 3.87169 15.0518C3.91336 15.1211 3.97224 15.1784 4.04262 15.2182C4.11301 15.258 4.19249 15.2789 4.27334 15.2789H10.131C10.3897 15.2789 10.5996 15.0691 10.5996 14.8103V3.77581C10.5996 3.67123 10.5646 3.56965 10.5002 3.48724C10.4358 3.40484 10.3457 3.34634 10.2442 3.32108ZM9.66238 14.3417H5.05264L9.66238 5.65803V14.3417Z" fill="black" stroke="black" stroke-width="0.3"/>
</g>
<defs>
<clipPath id="clip0_4538_104">
<rect width="24" height="24" fill="white"/>
</clipPath>
</defs>
</svg>
